<svg width="42" height="42" viewBox="0 0 42 42" fill="none" xmlns="http://www.w3.org/2000/svg">
<rect width="42" height="42" fill="#AD639D"/>
<path d="M12.4088 9.96667V12.471H9.90448V9.96667H12.4088ZM12.4088 12.471V14.9753H14.9131V12.471H12.4088ZM19.9218 32.5057V30.0013H14.9131V32.5057H19.9218ZM22.4261 32.5057H27.4348V30.0013H22.4261V32.5057ZM29.9391 12.471H27.4348V14.9753H29.9391V12.471ZM32.4435 9.96667H29.9391V12.471H32.4435V9.96667ZM34.9478 22.4883V30.0013H32.4435V24.9927H29.9391V30.0013H27.4348V27.497H14.9131V30.0013H12.4088V24.9927H9.90448V30.0013H7.40015V22.4883H9.90448V19.984H12.4088V17.4797H14.9131V14.9753H27.4348V17.4797H29.9391V19.984H32.4435V22.4883H34.9478ZM17.4175 19.984H14.9131V22.4883H17.4175V19.984ZM27.4348 19.984H24.9305V22.4883H27.4348V19.984Z" fill="white"/>
</svg>
