<svg xmlns="http://www.w3.org/2000/svg" xmlns:xlink="http://www.w3.org/1999/xlink">
  <defs>
    <symbol viewBox="0 0 18 18" id="folder">
      <path d="M7.81 3.09003L9.02998 4.34003C9.49998 4.82003 10.15 5.09003 10.82 5.09003H15.5C15.78 5.09003 16 5.31003 16 5.59003V14.41C16 14.69 15.78 14.91 15.5 14.91H2.5C2.22 14.91 2 14.69 2 14.41V3.59003C2 3.31003 2.22 3.09003 2.5 3.09003H7.81ZM8.01999 1.59003H2.5C1.4 1.59003 0.5 2.49003 0.5 3.59003V14.41C0.5 15.51 1.4 16.41 2.5 16.41H15.5C16.6 16.41 17.5 15.51 17.5 14.41V5.59003C17.5 4.49003 16.6 3.59003 15.5 3.59003H10.82C10.55 3.59003 10.29 3.48003 10.11 3.29003L8.74001 1.89003C8.55001 1.70003 8.29 1.59003 8.03 1.59003H8.01999Z"/>
    </symbol>
    <symbol viewBox="0 0 18 18" id="arrow-triangle-right">
      <path fill-rule="evenodd" clip-rule="evenodd" d="M5.5 16L12.5 9L5.5 2V16Z"/>
    </symbol>
    <symbol viewBox="0 0 18 18" id="file">
      <path fill-rule="evenodd" clip-rule="evenodd" d="M10.75 3.37V5.56999C10.75 5.70578 10.8642 5.81999 11 5.81999H13.2L10.75 3.37ZM14.01 7.31999H11C10.0358 7.31999 9.25 6.53421 9.25 5.56999V2.5H4.50999C4.22999 2.5 4.00999 2.72 4.00999 3V15C4.00999 15.28 4.22999 15.5 4.50999 15.5H13.51C13.79 15.5 14.01 15.28 14.01 15V7.31999ZM4.50999 1H9.67999C10.21 1 10.71 1.21 11.09 1.59L14.92 5.42C15.3 5.79 15.51 6.3 15.51 6.83V15C15.51 16.1 14.61 17 13.51 17H4.50999C3.40999 17 2.50999 16.1 2.50999 15V3C2.50999 1.9 3.40999 1 4.50999 1Z"/>
    </symbol>
    <symbol viewBox="0 0 18 18" id="check-circled">
      <path fill-rule="evenodd" clip-rule="evenodd" d="M15.5 9C15.5 5.42 12.58 2.5 9 2.5C5.42 2.5 2.5 5.42 2.5 9C2.5 12.58 5.42 15.5 9 15.5C12.58 15.5 15.5 12.58 15.5 9ZM1 9C1 4.58 4.58 1 9 1C13.42 1 17 4.58 17 9C17 13.42 13.42 17 9 17C4.58 17 1 13.42 1 9ZM12.421 7.40971C12.7135 7.11647 12.7129 6.6416 12.4197 6.34905C12.1265 6.0565 11.6516 6.05706 11.359 6.3503L7.65938 10.0587L6.63034 9.02968C6.33744 8.73678 5.86257 8.73678 5.56968 9.02967C5.27678 9.32257 5.27678 9.79744 5.56968 10.0903L7.12967 11.6503C7.27043 11.7911 7.46138 11.8701 7.66045 11.87C7.85951 11.8699 8.05037 11.7906 8.19096 11.6497L12.421 7.40971Z"/>
    </symbol>
    <symbol viewBox="0 0 18 18" id="warning-triangle">
      <path fill-rule="evenodd" clip-rule="evenodd" d="M9.00001 3.45946C9.11676 3.45946 9.32109 3.48865 9.4573 3.72216L15.7427 14.6097C15.8692 14.8335 15.8011 15.0378 15.7427 15.1351C15.6843 15.2324 15.5481 15.3978 15.2854 15.3978H2.7146C2.4519 15.3978 2.31568 15.2324 2.2573 15.1351C2.19893 15.0378 2.13082 14.8432 2.2573 14.6097L8.54271 3.72216C8.66919 3.49838 8.88325 3.45946 9.00001 3.45946ZM9.00001 2C8.32865 2 7.66703 2.33081 7.28757 2.99243L1.00217 13.88C0.24325 15.2032 1.19676 16.8573 2.7146 16.8573H15.2854C16.813 16.8573 17.7665 15.2032 16.9978 13.88L10.7124 2.99243C10.333 2.33081 9.66163 2 9.00001 2ZM9 7.117C9.41421 7.117 9.75 7.45279 9.75 7.867V10.4551C9.75 10.8693 9.41421 11.2051 9 11.2051C8.58579 11.2051 8.25 10.8693 8.25 10.4551V7.867C8.25 7.45279 8.58579 7.117 9 7.117ZM9.90487 12.8778C9.90487 13.3776 9.49975 13.7827 9 13.7827C8.50026 13.7827 8.09514 13.3776 8.09514 12.8778C8.09514 12.3781 8.50026 11.973 9 11.973C9.49975 11.973 9.90487 12.3781 9.90487 12.8778Z"/>
    </symbol>
    <symbol viewBox="0 0 18 18" id="warning-circled">
      <path fill-rule="evenodd" clip-rule="evenodd" d="M9 2.5C12.58 2.5 15.5 5.42 15.5 9C15.5 12.58 12.58 15.5 9 15.5C5.42 15.5 2.5 12.58 2.5 9C2.5 5.42 5.42 2.5 9 2.5ZM9 1C4.58 1 1 4.58 1 9C1 13.42 4.58 17 9 17C13.42 17 17 13.42 17 9C17 4.58 13.42 1 9 1ZM9 5.42999C9.41421 5.42999 9.75 5.76578 9.75 6.17999V9.46999C9.75 9.88421 9.41421 10.22 9 10.22C8.58579 10.22 8.25 9.88421 8.25 9.46999V6.17999C8.25 5.76578 8.58579 5.42999 9 5.42999ZM9.87001 11.82C9.87001 12.3005 9.4805 12.69 9.00001 12.69C8.51952 12.69 8.13 12.3005 8.13 11.82C8.13 11.3395 8.51952 10.95 9.00001 10.95C9.4805 10.95 9.87001 11.3395 9.87001 11.82Z"/>
    </symbol>
  </defs>
</svg>