<svg xmlns="http://www.w3.org/2000/svg" xmlns:xlink="http://www.w3.org/1999/xlink">
  <defs>
    <symbol viewBox="0 0 18 18" id="folder">
      <path d="M7.81 3.09003L9.02998 4.34003C9.49998 4.82003 10.15 5.09003 10.82 5.09003H15.5C15.78 5.09003 16 5.31003 16 5.59003V14.41C16 14.69 15.78 14.91 15.5 14.91H2.5C2.22 14.91 2 14.69 2 14.41V3.59003C2 3.31003 2.22 3.09003 2.5 3.09003H7.81ZM8.01999 1.59003H2.5C1.4 1.59003 0.5 2.49003 0.5 3.59003V14.41C0.5 15.51 1.4 16.41 2.5 16.41H15.5C16.6 16.41 17.5 15.51 17.5 14.41V5.59003C17.5 4.49003 16.6 3.59003 15.5 3.59003H10.82C10.55 3.59003 10.29 3.48003 10.11 3.29003L8.74001 1.89003C8.55001 1.70003 8.29 1.59003 8.03 1.59003H8.01999Z"/>
    </symbol>
    <symbol viewBox="0 0 18 18" id="arrow-triangle-right">
      <path fill-rule="evenodd" clip-rule="evenodd" d="M5.5 16L12.5 9L5.5 2V16Z"/>
    </symbol>
    <symbol viewBox="0 0 18 18" id="arrow-triangle-down">
      <path fill-rule="evenodd" clip-rule="evenodd" d="M2 5.5L9 12.5L16 5.5L2 5.5Z"/>
    </symbol>
    <symbol viewBox="0 0 18 18" id="file">
      <path fill-rule="evenodd" clip-rule="evenodd" d="M10.75 3.37V5.56999C10.75 5.70578 10.8642 5.81999 11 5.81999H13.2L10.75 3.37ZM14.01 7.31999H11C10.0358 7.31999 9.25 6.53421 9.25 5.56999V2.5H4.50999C4.22999 2.5 4.00999 2.72 4.00999 3V15C4.00999 15.28 4.22999 15.5 4.50999 15.5H13.51C13.79 15.5 14.01 15.28 14.01 15V7.31999ZM4.50999 1H9.67999C10.21 1 10.71 1.21 11.09 1.59L14.92 5.42C15.3 5.79 15.51 6.3 15.51 6.83V15C15.51 16.1 14.61 17 13.51 17H4.50999C3.40999 17 2.50999 16.1 2.50999 15V3C2.50999 1.9 3.40999 1 4.50999 1Z"/>
    </symbol>
    <symbol viewBox="0 0 18 18" id="check-circled">
      <path fill-rule="evenodd" clip-rule="evenodd" d="M15.5 9C15.5 5.42 12.58 2.5 9 2.5C5.42 2.5 2.5 5.42 2.5 9C2.5 12.58 5.42 15.5 9 15.5C12.58 15.5 15.5 12.58 15.5 9ZM1 9C1 4.58 4.58 1 9 1C13.42 1 17 4.58 17 9C17 13.42 13.42 17 9 17C4.58 17 1 13.42 1 9ZM12.421 7.40971C12.7135 7.11647 12.7129 6.6416 12.4197 6.34905C12.1265 6.0565 11.6516 6.05706 11.359 6.3503L7.65938 10.0587L6.63034 9.02968C6.33744 8.73678 5.86257 8.73678 5.56968 9.02967C5.27678 9.32257 5.27678 9.79744 5.56968 10.0903L7.12967 11.6503C7.27043 11.7911 7.46138 11.8701 7.66045 11.87C7.85951 11.8699 8.05037 11.7906 8.19096 11.6497L12.421 7.40971Z"/>
    </symbol>
    <symbol viewBox="0 0 18 18" id="warning-triangle">
      <path fill-rule="evenodd" clip-rule="evenodd" d="M9.00001 3.45946C9.11676 3.45946 9.32109 3.48865 9.4573 3.72216L15.7427 14.6097C15.8692 14.8335 15.8011 15.0378 15.7427 15.1351C15.6843 15.2324 15.5481 15.3978 15.2854 15.3978H2.7146C2.4519 15.3978 2.31568 15.2324 2.2573 15.1351C2.19893 15.0378 2.13082 14.8432 2.2573 14.6097L8.54271 3.72216C8.66919 3.49838 8.88325 3.45946 9.00001 3.45946ZM9.00001 2C8.32865 2 7.66703 2.33081 7.28757 2.99243L1.00217 13.88C0.24325 15.2032 1.19676 16.8573 2.7146 16.8573H15.2854C16.813 16.8573 17.7665 15.2032 16.9978 13.88L10.7124 2.99243C10.333 2.33081 9.66163 2 9.00001 2ZM9 7.117C9.41421 7.117 9.75 7.45279 9.75 7.867V10.4551C9.75 10.8693 9.41421 11.2051 9 11.2051C8.58579 11.2051 8.25 10.8693 8.25 10.4551V7.867C8.25 7.45279 8.58579 7.117 9 7.117ZM9.90487 12.8778C9.90487 13.3776 9.49975 13.7827 9 13.7827C8.50026 13.7827 8.09514 13.3776 8.09514 12.8778C8.09514 12.3781 8.50026 11.973 9 11.973C9.49975 11.973 9.90487 12.3781 9.90487 12.8778Z"/>
    </symbol>
    <symbol viewBox="0 0 18 18" id="warning-circled">
      <path fill-rule="evenodd" clip-rule="evenodd" d="M9 2.5C12.58 2.5 15.5 5.42 15.5 9C15.5 12.58 12.58 15.5 9 15.5C5.42 15.5 2.5 12.58 2.5 9C2.5 5.42 5.42 2.5 9 2.5ZM9 1C4.58 1 1 4.58 1 9C1 13.42 4.58 17 9 17C13.42 17 17 13.42 17 9C17 4.58 13.42 1 9 1ZM9 5.42999C9.41421 5.42999 9.75 5.76578 9.75 6.17999V9.46999C9.75 9.88421 9.41421 10.22 9 10.22C8.58579 10.22 8.25 9.88421 8.25 9.46999V6.17999C8.25 5.76578 8.58579 5.42999 9 5.42999ZM9.87001 11.82C9.87001 12.3005 9.4805 12.69 9.00001 12.69C8.51952 12.69 8.13 12.3005 8.13 11.82C8.13 11.3395 8.51952 10.95 9.00001 10.95C9.4805 10.95 9.87001 11.3395 9.87001 11.82Z"/>
    </symbol>
    <symbol viewBox="0 0 18 18" id="gear-solid">
      <path d="M9.57001 1C10.18 1 10.72 1.34 11.03 1.83C11.17 2.07 11.28 2.37 11.25 2.68C11.23 2.92 11.31 3.16 11.44 3.38C11.86 4.06 12.78 4.32 13.5 3.93C14.31 3.47 15.33 3.75 15.8 4.54L16.34 5.48C16.81 6.27 16.56 7.29 15.73 7.74C15.03 8.15 14.79 9.05 15.21 9.74C15.34 9.96 15.49 10.14 15.71 10.25C16 10.4 16.21 10.64 16.37 10.88C16.67 11.38 16.65 11.98 16.35 12.52L15.77 13.48C15.47 13.99 14.91 14.31 14.32 14.31C14.03 14.31 13.71 14.23 13.46 14.07C13.24 13.93 13 13.89 12.74 13.89C11.93 13.89 11.25 14.55 11.23 15.35C11.23 16.27 10.48 16.99 9.53001 16.99H8.42001C7.47001 16.99 6.72001 16.27 6.72001 15.35C6.70001 14.56 6.02001 13.89 5.22001 13.89C4.95001 13.89 4.71001 13.94 4.50001 14.07C4.24001 14.23 3.91001 14.31 3.64001 14.31C3.05001 14.31 2.49001 13.99 2.18001 13.48L1.61001 12.52C1.31001 12 1.29 11.38 1.59 10.88C1.72 10.64 1.97001 10.4 2.25001 10.25C2.48001 10.14 2.63001 9.95 2.76001 9.74C3.17001 9.05 2.92001 8.15 2.23001 7.74C1.42001 7.28 1.16001 6.27 1.62001 5.48L2.16001 4.54C2.63001 3.75 3.65001 3.47 4.46001 3.93C5.17001 4.31 6.09 4.06 6.52 3.38C6.65 3.16 6.73001 2.92 6.71001 2.68C6.69001 2.37 6.78001 2.07 6.94001 1.83C7.24001 1.33 7.79001 1.01 8.39001 1H9.54001H9.57001ZM9.00001 6.74C7.72001 6.74 6.68001 7.75 6.68001 9C6.68001 10.25 7.72001 11.26 9.00001 11.26C10.28 11.26 11.3 10.26 11.3 9C11.3 7.74 10.28 6.74 9.00001 6.74Z"/>
    </symbol>
    <symbol viewBox="0 0 18 18" id="close">
      <path fill-rule="evenodd" clip-rule="evenodd" d="M4.03033 2.96967C3.73744 2.67678 3.26256 2.67678 2.96967 2.96967C2.67678 3.26256 2.67678 3.73744 2.96967 4.03033L7.93934 9L2.96967 13.9697C2.67678 14.2626 2.67678 14.7374 2.96967 15.0303C3.26256 15.3232 3.73744 15.3232 4.03033 15.0303L9 10.0607L13.9697 15.0303C14.2626 15.3232 14.7374 15.3232 15.0303 15.0303C15.3232 14.7374 15.3232 14.2626 15.0303 13.9697L10.0607 9L15.0303 4.03033C15.3232 3.73744 15.3232 3.26256 15.0303 2.96967C14.7374 2.67678 14.2626 2.67678 13.9697 2.96967L9 7.93934L4.03033 2.96967Z"/>
    </symbol>
    <symbol viewBox="0 0 18 18" id="close-alt">
      <path fill-rule="evenodd" clip-rule="evenodd" d="M5.30124 3.16988C4.71576 2.58378 3.76601 2.58328 3.17992 3.16876C2.59382 3.75424 2.59333 4.70399 3.1788 5.29008L6.88481 8.99998L3.1788 12.7099C2.59333 13.296 2.59382 14.2457 3.17992 14.8312C3.76601 15.4167 4.71576 15.4162 5.30124 14.8301L9.00502 11.1224L12.7088 14.8301C13.2943 15.4162 14.244 15.4167 14.8301 14.8312C15.4162 14.2457 15.4167 13.296 14.8312 12.7099L11.1252 8.99998L14.8312 5.29008C15.4167 4.70399 15.4162 3.75424 14.8301 3.16876C14.244 2.58328 13.2943 2.58378 12.7088 3.16988L9.00502 6.87755L5.30124 3.16988Z"/>
    </symbol>
    <symbol viewBox="0 0 18 18" id="cancel-circled">
      <path d="M11.6 7.6L10.1 9.1L11.6 10.6C11.9 10.9 11.9 11.4 11.6 11.7C11.3 12 10.8 12 10.5 11.7L9 10.1L7.5 11.6C7.2 11.9 6.7 11.9 6.4 11.6C6.1 11.3 6.1 10.8 6.4 10.5L7.9 9L6.4 7.6C6.1 7.3 6.1 6.8 6.4 6.5C6.7 6.2 7.2 6.2 7.5 6.5L9 8L10.5 6.5C10.8 6.2 11.3 6.2 11.6 6.5C11.9 6.8 11.9 7.3 11.6 7.6ZM17 9C17 13.4 13.4 17 9 17C4.6 17 1 13.4 1 9C1 4.6 4.6 1 9 1C13.4 1 17 4.6 17 9ZM15.5 9C15.5 5.4 12.6 2.5 9 2.5C5.4 2.5 2.5 5.4 2.5 9C2.5 12.6 5.4 15.5 9 15.5C12.6 15.5 15.5 12.6 15.5 9Z"/>  
    </symbol>
    <symbol viewBox="0 0 18 18" id="eye">
      <path fill-rule="evenodd" clip-rule="evenodd" d="M2.43659 6.05516C3.84664 4.77257 6.01868 3.46997 9 3.46997C11.9813 3.46997 14.1534 4.77257 15.5634 6.05516C16.2674 6.69549 16.7869 7.33506 17.1317 7.81626C17.3044 8.05735 17.4343 8.26012 17.5225 8.40535C17.5666 8.47801 17.6004 8.5364 17.6239 8.57815C17.6357 8.59903 17.6449 8.61576 17.6516 8.62805L17.6597 8.64311L17.6623 8.64807L17.6633 8.6499C17.6635 8.65023 17.664 8.65129 17 8.99997C17.664 9.34865 17.6639 9.34896 17.6637 9.34929L17.6623 9.35187L17.6597 9.35683L17.6516 9.37189C17.6449 9.38418 17.6357 9.40091 17.6239 9.42179C17.6004 9.46354 17.5666 9.52194 17.5225 9.59459C17.4343 9.73982 17.3044 9.94259 17.1317 10.1837C16.7869 10.6649 16.2674 11.3045 15.5634 11.9448C14.1534 13.2274 11.9813 14.53 9 14.53C6.01868 14.53 3.84664 13.2274 2.43659 11.9448C1.73263 11.3045 1.21311 10.6649 0.868316 10.1837C0.695569 9.94259 0.565659 9.73982 0.477484 9.59459C0.433369 9.52194 0.399617 9.46354 0.376096 9.42179C0.364332 9.40091 0.35512 9.38418 0.348441 9.37189L0.340319 9.35683L0.337678 9.35187L0.336711 9.35004C0.336538 9.34971 0.33598 9.34865 1 8.99997C0.33598 8.65129 0.336143 8.65098 0.336316 8.65065L0.337678 8.64807L0.340319 8.64311L0.348441 8.62805C0.35512 8.61576 0.364332 8.59903 0.376096 8.57815C0.399617 8.5364 0.433369 8.47801 0.477484 8.40535C0.565659 8.26012 0.695569 8.05735 0.868316 7.81626C1.21311 7.33506 1.73263 6.69549 2.43659 6.05516ZM1 8.99997L0.336316 8.65065C0.221676 8.86897 0.22134 9.13033 0.33598 9.34865L1 8.99997ZM1.87547 8.99997C1.93399 9.08983 2.00467 9.19424 2.08762 9.31001C2.38501 9.72506 2.83612 10.2805 3.44591 10.8352C4.66336 11.9426 6.49132 13.03 9 13.03C11.5087 13.03 13.3366 11.9426 14.5541 10.8352C15.1639 10.2805 15.615 9.72506 15.9124 9.31001C15.9953 9.19424 16.066 9.08983 16.1245 8.99997C16.066 8.91011 15.9953 8.8057 15.9124 8.68993C15.615 8.27488 15.1639 7.71945 14.5541 7.16478C13.3366 6.05738 11.5087 4.96997 9 4.96997C6.49132 4.96997 4.66336 6.05738 3.44591 7.16478C2.83612 7.71945 2.38501 8.27488 2.08762 8.68993C2.00467 8.8057 1.93399 8.91011 1.87547 8.99997ZM17 8.99997L17.6637 9.34929C17.7783 9.13097 17.7787 8.86961 17.664 8.65129L17 8.99997ZM1.66336 8.65004C1.66317 8.64968 1.66325 8.64983 1.66336 8.65004V8.65004Z"/>
      <path fill-rule="evenodd" clip-rule="evenodd" d="M9 7.03998C7.91752 7.03998 7.04 7.9175 7.04 8.99998C7.04 10.0825 7.91752 10.96 9 10.96C10.0825 10.96 10.96 10.0825 10.96 8.99998C10.96 7.9175 10.0825 7.03998 9 7.03998ZM5.54 8.99998C5.54 7.08907 7.0891 5.53998 9 5.53998C10.9109 5.53998 12.46 7.08907 12.46 8.99998C12.46 10.9109 10.9109 12.46 9 12.46C7.0891 12.46 5.54 10.9109 5.54 8.99998Z"/>
    </symbol>
    <symbol viewBox="0 0 18 18" id="eye-closed">
      <path fill-rule="evenodd" clip-rule="evenodd" d="M2.43659 6.05522C3.84664 4.77263 6.01868 3.47003 9 3.47003C11.9813 3.47003 14.1534 4.77263 15.5634 6.05522C16.2674 6.69555 16.7869 7.33512 17.1317 7.81632C17.3044 8.05741 17.4343 8.26018 17.5225 8.40541C17.5666 8.47807 17.6004 8.53646 17.6239 8.57821C17.6357 8.59909 17.6449 8.61582 17.6516 8.62811L17.6597 8.64317L17.6623 8.64813L17.6633 8.64996C17.6635 8.65029 17.664 8.65135 17 9.00003C17.664 9.34871 17.6639 9.34902 17.6637 9.34935L17.6623 9.35193L17.6597 9.35689L17.6516 9.37196C17.6449 9.38424 17.6357 9.40097 17.6239 9.42185C17.6004 9.4636 17.5666 9.522 17.5225 9.59466C17.4343 9.73989 17.3044 9.94265 17.1317 10.1837C16.7869 10.6649 16.2674 11.3045 15.5634 11.9448C14.1534 13.2274 11.9813 14.53 9 14.53C6.01868 14.53 3.84664 13.2274 2.43659 11.9448C1.73263 11.3045 1.21311 10.6649 0.868316 10.1837C0.695569 9.94265 0.565659 9.73989 0.477484 9.59466C0.433369 9.522 0.399617 9.4636 0.376096 9.42185C0.364332 9.40097 0.35512 9.38424 0.348441 9.37196L0.340319 9.35689L0.337678 9.35193L0.336711 9.3501C0.336538 9.34977 0.33598 9.34871 1 9.00003C0.33598 8.65135 0.336143 8.65104 0.336316 8.65071L0.337678 8.64813L0.340319 8.64317L0.348441 8.62811C0.35512 8.61582 0.364332 8.59909 0.376096 8.57821C0.399617 8.53646 0.433369 8.47807 0.477484 8.40541C0.565659 8.26018 0.695569 8.05741 0.868316 7.81632C1.21311 7.33512 1.73263 6.69555 2.43659 6.05522ZM1 9.00003L0.336316 8.65071C0.221676 8.86903 0.22134 9.13039 0.33598 9.34871L1 9.00003ZM1.87547 9.00003C1.93399 9.08989 2.00467 9.1943 2.08762 9.31007C2.38501 9.72512 2.83612 10.2805 3.44591 10.8352C4.66336 11.9426 6.49132 13.03 9 13.03C11.5087 13.03 13.3366 11.9426 14.5541 10.8352C15.1639 10.2805 15.615 9.72512 15.9124 9.31007C15.9953 9.1943 16.066 9.08989 16.1245 9.00003C16.066 8.91017 15.9953 8.80577 15.9124 8.68999C15.615 8.27494 15.1639 7.71951 14.5541 7.16484C13.3366 6.05744 11.5087 4.97003 9 4.97003C6.49132 4.97003 4.66336 6.05744 3.44591 7.16484C2.83612 7.71951 2.38501 8.27494 2.08762 8.68999C2.00467 8.80577 1.93399 8.91017 1.87547 9.00003ZM17 9.00003L17.6637 9.34935C17.7783 9.13103 17.7787 8.86967 17.664 8.65135L17 9.00003ZM1.66336 8.6501C1.66317 8.64974 1.66325 8.64989 1.66336 8.6501V8.6501Z"/>
      <path fill-rule="evenodd" clip-rule="evenodd" d="M15.4403 2.5597C15.7332 2.85259 15.7332 3.32746 15.4403 3.62036L3.62033 15.4404C3.32744 15.7332 2.85256 15.7332 2.55967 15.4404C2.26678 15.1475 2.26678 14.6726 2.55967 14.3797L14.3797 2.5597C14.6726 2.2668 15.1474 2.2668 15.4403 2.5597Z"/>
      <path fill-rule="evenodd" clip-rule="evenodd" d="M5.54 9.00004C5.54 7.08583 7.08579 5.54004 9 5.54004C9.95352 5.54004 10.823 5.92235 11.4503 6.54971C11.7432 6.8426 11.7432 7.31748 11.4503 7.61037L7.61033 11.4504C7.31744 11.7433 6.84256 11.7433 6.54967 11.4504C5.92231 10.823 5.54 9.95355 5.54 9.00004ZM9 7.04004C7.91421 7.04004 7.04 7.91425 7.04 9.00004C7.04 9.26751 7.09215 9.52158 7.18674 9.75264L9.7526 7.18678C9.52154 7.09219 9.26747 7.04004 9 7.04004Z"/>
    </symbol>
    <symbol viewBox="0 0 18 18" id="menu">
      <path fill-rule="evenodd" clip-rule="evenodd" d="M1.25 5C1.25 4.58579 1.58579 4.25 2 4.25H16C16.4142 4.25 16.75 4.58579 16.75 5C16.75 5.41421 16.4142 5.75 16 5.75H2C1.58579 5.75 1.25 5.41421 1.25 5ZM1.25 9C1.25 8.58579 1.58579 8.25 2 8.25H16C16.4142 8.25 16.75 8.58579 16.75 9C16.75 9.41421 16.4142 9.75 16 9.75H2C1.58579 9.75 1.25 9.41421 1.25 9ZM2 12.25C1.58579 12.25 1.25 12.5858 1.25 13C1.25 13.4142 1.58579 13.75 2 13.75H16C16.4142 13.75 16.75 13.4142 16.75 13C16.75 12.5858 16.4142 12.25 16 12.25H2Z"/>
    </symbol>
  </defs>
</svg>