<svg xmlns="http://www.w3.org/2000/svg" xmlns:xlink="http://www.w3.org/1999/xlink">
  <defs>
    <symbol viewBox="0 0 18 18" id="folder">
		<path d="M7.81 3.09003L9.02998 4.34003C9.49998 4.82003 10.15 5.09003 10.82 5.09003H15.5C15.78 5.09003 16 5.31003 16 5.59003V14.41C16 14.69 15.78 14.91 15.5 14.91H2.5C2.22 14.91 2 14.69 2 14.41V3.59003C2 3.31003 2.22 3.09003 2.5 3.09003H7.81ZM8.01999 1.59003H2.5C1.4 1.59003 0.5 2.49003 0.5 3.59003V14.41C0.5 15.51 1.4 16.41 2.5 16.41H15.5C16.6 16.41 17.5 15.51 17.5 14.41V5.59003C17.5 4.49003 16.6 3.59003 15.5 3.59003H10.82C10.55 3.59003 10.29 3.48003 10.11 3.29003L8.74001 1.89003C8.55001 1.70003 8.29 1.59003 8.03 1.59003H8.01999Z"/>
    </symbol>
    <symbol viewBox="0 0 18 18" id="arrow-triangle-right">
		<path fill-rule="evenodd" clip-rule="evenodd" d="M5.5 16L12.5 9L5.5 2V16Z"/>
    </symbol>
	<symbol viewBox="0 0 18 18" id="file">
		<path fill-rule="evenodd" clip-rule="evenodd" d="M10.75 3.37V5.56999C10.75 5.70578 10.8642 5.81999 11 5.81999H13.2L10.75 3.37ZM14.01 7.31999H11C10.0358 7.31999 9.25 6.53421 9.25 5.56999V2.5H4.50999C4.22999 2.5 4.00999 2.72 4.00999 3V15C4.00999 15.28 4.22999 15.5 4.50999 15.5H13.51C13.79 15.5 14.01 15.28 14.01 15V7.31999ZM4.50999 1H9.67999C10.21 1 10.71 1.21 11.09 1.59L14.92 5.42C15.3 5.79 15.51 6.3 15.51 6.83V15C15.51 16.1 14.61 17 13.51 17H4.50999C3.40999 17 2.50999 16.1 2.50999 15V3C2.50999 1.9 3.40999 1 4.50999 1Z"/>
    </symbol>
  </defs>
</svg>