<?xml version="1.0" encoding="utf-8"?>
<!-- Generator: Adobe Illustrator 27.1.1, SVG Export Plug-In . SVG Version: 6.00 Build 0)  -->
<svg version="1.1" id="_Слой_2" xmlns="http://www.w3.org/2000/svg" xmlns:xlink="http://www.w3.org/1999/xlink" x="0px"
	 y="0px" viewBox="0 0 398.7 284.8" style="enable-background:new 0 0 398.7 284.8;" xml:space="preserve">
<style type="text/css">
	.st0{fill:#5780F1;}
	.st1{opacity:0.3;enable-background:new    ;}
	.st2{fill:#DEDEDE;stroke:#191D2D;stroke-miterlimit:10;}
	.st3{fill:#FFFFFF;stroke:#191D2D;stroke-miterlimit:10;}
	.st4{fill:none;stroke:#191D2D;stroke-miterlimit:10;}
	.st5{fill:#ABABAB;stroke:#191D2D;stroke-miterlimit:10;}
	.st6{fill:#191D2D;stroke:#191D2D;stroke-miterlimit:10;}
	.st7{fill:#191D2D;}
</style>
<g>
	<g>
		<path class="st0" d="M78.3,240.1c-1.1-3.4-1.7-7.2-1.7-12.3c0-43.9,34.4-47.9,34.4-97.8c0-14.3-5.7-19.8-15.8-19.8
			s-15.8,5.4-15.8,19.8v21.8H49.7V132c0-32.1,15.8-50.5,46.5-50.5s46.5,18.4,46.5,50.5c0,52.2-37.3,60.2-37.3,96.9
			c0,3.7,0.3,7.5,1.1,11.2H78.3z M107.3,254.2v30.4H76.9v-30.4H107.3z"/>
		<path class="st0" d="M181.6,240.1c-1.1-3.4-1.7-7.2-1.7-12.3c0-43.9,34.4-47.9,34.4-97.8c0-14.3-5.7-19.8-15.8-19.8
			s-15.8,5.4-15.8,19.8v21.8h-29.8V132c0-32.1,15.8-50.5,46.5-50.5s46.5,18.4,46.5,50.5c0,52.2-37.3,60.2-37.3,96.9
			c0,3.7,0.3,7.5,1.1,11.2H181.6z M210.5,254.2v30.4h-30.4v-30.4H210.5z"/>
		<path class="st0" d="M284.8,240.1c-1.1-3.4-1.7-7.2-1.7-12.3c0-43.9,34.4-47.9,34.4-97.8c0-14.3-5.7-19.8-15.8-19.8
			s-15.8,5.4-15.8,19.8v21.8h-29.8V132c0-32.1,15.8-50.5,46.5-50.5S349,99.9,349,132c0,52.2-37.3,60.2-37.3,96.9
			c0,3.7,0.3,7.5,1.1,11.2H284.8z M313.8,254.2v30.4h-30.4v-30.4H313.8z"/>
	</g>
	<g>
		<path class="st1" d="M119.5,86.3c0.1,1.7,0.4,3.4,0.7,5c0,0.2,0.1,0.4,0.1,0.5c0.1,0.2,0.1,0.5,0.2,0.7c0.1,0.3,0.2,0.6,0.2,0.8
			c0.1,0.2,0.1,0.3,0.2,0.5c0.1,0.4,0.2,0.7,0.4,1c0,0.1,0.1,0.2,0.1,0.3c0.2,0.4,0.3,0.9,0.5,1.3c0,0,0,0.1,0,0.1
			c0.4,0.9,0.8,1.8,1.3,2.7c0.1,0.2,0.2,0.4,0.3,0.6c0.1,0.2,0.2,0.4,0.3,0.6c0.2,0.3,0.4,0.6,0.5,0.9c0,0.1,0.1,0.1,0.1,0.2
			c2.3,3.6,5.3,6.7,8.8,9.1c-0.9,1.4-1.8,3.1-2.3,5.1c-2,2.6-7.1,9.2-8.9,13.5c-1,0.3-2.9,1.4-3.1,5.3c0,0,0,0.1,0,0.1
			c0-0.1-0.1-0.2-0.1-0.2c0,0-7.5,18.1-9.3,23.3c-1.8,5.2-3.8,11-3.7,14.3c0,3.4,2.1,7.6,3.7,7.8c1.6,0.2,2.8-0.9,3-3.2
			c0.2-2.3,0.1-3.2,1.3-4.5c1.2-1.3,4.7-3.7,5.2-3.9s0.8,1.5-0.3,3.4c-1.1,1.9-3.4,3.6-2,5.5c1.5,1.9,4.4-0.3,6-1.9
			c1.6-1.6,3.2-4.4,3.9-7.1c0.7-2.8,0.3-8.7,0.3-8.7l11.1-10.5c1.2-0.4,2.3-0.9,3.2-1.5c0.8-4.7,1.2-9.8,1.2-15.5
			C142.6,109.5,134.8,93.7,119.5,86.3z"/>
		<path class="st1" d="M235,135.3c0.1,0,0.2,0,0.3,0c1.6-0.1,2.7-2.2,3.4-5.8c0.1-0.5,0.2-1,0.3-1.4c1.3-0.9,3-2.2,3.7-3.7
			c0.4-0.8,0.8-2.2,1-3.7c0.4-0.2,0.8-0.5,1.3-0.8c-1.8-12.4-6.7-22.1-14.5-28.6c-3.5-0.5-8.5-1.1-14.6-1.3c-3-0.1-5.7-0.1-8.1,0.1
			c-2-0.9-4.3-1.2-6.5-1c-1.4,0.1-2.7,0.5-3.9,1.1c-3.8-1-7.7-1.3-10.9-1c-0.8,0.1-1.5,0.2-2.3,0.3c-0.1-1.1-0.2-2.2-0.4-3.2
			c0-0.7,0.1-1.5,0.1-2.2c0-0.2,0-0.4,0-0.6c-20.4,5.4-30.9,22.4-30.9,48.6v17c0.8,1,1.5,1.9,2.3,2.8h27.5V130
			c0-14.3,5.7-19.8,15.8-19.8s15.8,5.4,15.8,19.8c0,46.8-30.3,53.2-34,90c5.9,3.3,12.6,3.4,18,1.1c0,0,3.2-0.6,6.1-2.9
			c1.4-0.2,3.3-0.5,5.7-1c5.5-22.4,26-34.3,33.3-63.1C242.5,147.7,238.9,140.5,235,135.3z"/>
		<path class="st1" d="M289.3,228.3c5.6-2.6,10.3-10,8-19.3c-1.5-5.9-3.3-10.8-5.5-14.6c-5,8.9-8.7,19-8.7,33.4c0,0.5,0,1,0,1.5
			c0.4,0,0.8,0.1,1.2,0.1C286,229.5,287.7,229.1,289.3,228.3z"/>
	</g>
	<g>
		<g>
			<path class="st2" d="M228.1,160.2c0,0,1,7.5,0.9,15.1s1.7,7.8,5.4,8.6s9.8-4.1,11.4-9c1.6-4.9,1.4-14.5,1.4-14.5L228.1,160.2
				L228.1,160.2z"/>
			<path class="st2" d="M244.7,169.3c-0.2,3.4-1.2,8.8-6.2,11.4c-4.2,2.3-7.9,0.3-9-0.4c0.7,2.6,2.4,2.9,4.9,3.5
				c3.6,0.8,9.8-4.1,11.4-9c1.6-4.9,1.4-14.5,1.4-14.5H245C244.9,162.8,244.8,167,244.7,169.3L244.7,169.3z"/>
		</g>
		<path class="st2" d="M210.9,167.3c0,0,6-0.1,14.1-3.1s17.3-9.8,15.3-16.5s-12.6-8.5-16.8-8.1s-9,1.7-9,1.7
			S215.6,160.1,210.9,167.3L210.9,167.3z"/>
		<path class="st0" d="M207,170c0,0,5.4-1.1,8.6-5.4s4.4-11.1,2.7-15.7S206.9,170,207,170L207,170z"/>
		<path class="st2" d="M174.8,126.2c0,0-3.1,15,3.1,29.7s19.6,18.2,29.1,14.1s11.7-17.3,11.8-26.2s-0.2-12.9-0.2-12.9
			S186.8,134.1,174.8,126.2L174.8,126.2z"/>
		<path class="st0" d="M173.7,122.1c0,0-1.4,4.9,1.4,6.7c2.9,1.8,17.6,10.4,35,7.1c9.8-1.9,7.6-4.7,7.4-6.3
			C217.4,128.1,173.7,122.1,173.7,122.1z"/>
		<path class="st3" d="M171.3,106.6c0,0,0.4,12.1,2.4,15.5s27.8,13.4,40.9,10.6s34.5-14.5,37-23.1c2.6-8.6-4.2-22.1-10.5-28.6
			s-9.1-7.8-9.1-7.8s-15.6,20.8-35,27.6C177.6,107.7,171.3,106.6,171.3,106.6L171.3,106.6z"/>
		<g>
			<path class="st3" d="M274.2,137.3c0,0,13.7-5.4,19.2-2.1c5.5,3.3,9.7,11,12.5,22.8c2.9,11.9-5.5,20.6-12.8,20.3s-6-5-8.8-9.8
				s-6.3-7.6-6.5-8.1S281,144.7,274.2,137.3z"/>
			<path class="st3" d="M293.4,135.2c-1.5-0.9-3.5-1.1-5.7-1.1c2.8,2.1,8.3,7.1,11.9,16.6c5,13.2,2.7,20.2,0.2,22.8
				s-7.9,3.5-10.2,3.2c-0.4-0.1-0.8-0.1-1.3-0.2c1,1,2.5,1.6,5,1.7c7.3,0.3,15.7-8.4,12.8-20.3C303.1,146.2,298.9,138.5,293.4,135.2
				L293.4,135.2z"/>
		</g>
		<path class="st3" d="M245.2,171c0,0,12.9,3.7,25-1.1s19.1-12.9,16.4-22.6c-2.6-9.8-7.6-10.1-18.6-10c-10.9,0.1-13.1,1.1-13.1,1.1
			S254.5,165.9,245.2,171L245.2,171z"/>
		
			<ellipse transform="matrix(9.393252e-02 -0.9956 0.9956 9.393252e-02 93.4926 346.992)" class="st0" cx="237.4" cy="122.1" rx="24" ry="22.1"/>
		
			<ellipse transform="matrix(9.393366e-02 -0.9956 0.9956 9.393366e-02 71.8009 379.0141)" class="st0" cx="244.1" cy="150.1" rx="21.7" ry="20.1"/>
		<path class="st3" d="M261.4,137.6c0,0,0.9-19.4-8.5-30c-9.5-10.6-30.9-1.9-34.5,14s4,39.8,13.8,46c9.9,6.2,18.2,0.1,23.8-8.4
			C261.5,150.7,261.4,137.6,261.4,137.6L261.4,137.6z"/>
		<g>
			<g>
				<path class="st2" d="M127.8,83.4c0,0-7.5,18.1-9.3,23.3s-3.8,11-3.7,14.3c0,3.4,2.1,7.6,3.7,7.8s2.8-0.9,3-3.2s0.1-3.2,1.3-4.5
					s4.7-3.7,5.2-3.9c0.5-0.2,0.8,1.5-0.3,3.4c-1.1,1.9-3.4,3.6-2,5.5c1.5,1.9,4.4-0.3,6-1.9s3.2-4.4,3.9-7.1
					c0.7-2.8,0.3-8.7,0.3-8.7l13.2-12.5C149.2,95.9,131.7,93.8,127.8,83.4L127.8,83.4z"/>
				<path class="st4" d="M128.7,119.1c0,0-0.2,2.6,4.6,2.7"/>
				<path class="st4" d="M115.9,116.9c0,0,1.3,5,6.9,4.2"/>
				<path class="st4" d="M115.5,123.9c0,0,3.3,2.5,5.8-0.2"/>
				<path class="st4" d="M122.3,99c0,0-0.4,9.9,13.7,9.3"/>
			</g>
			<path class="st0" d="M131.6,78.1c0,0-3.5,0.1-3.7,5.4s4,13.5,12.2,14.8c8.1,1.4,13.2-3.5,14.7-7.5
				C156.2,86.8,137.2,74.9,131.6,78.1L131.6,78.1z"/>
			<path class="st2" d="M140.7,63.6c0,0-8.6,10.4-10.1,15.7c-1.5,5.3,2.3,15,11.8,16.2c9.6,1.2,15.3-6.8,15.3-6.8L140.7,63.6z"/>
			<path class="st0" d="M145.7,55.3c0,0-6.2,5.2-6.6,13.7c-0.4,8.5,7.4,18.2,17.6,17.3S154.1,54.8,145.7,55.3z"/>
		</g>
		<path class="st0" d="M149.9,61.5c0,0-4.5,5.5-1.9,14.6c2.6,9.2,9.1,14.2,9.1,14.2s12.5,18,17.8,20.8c5.3,2.8,14.6,2.9,33.4-4.8
			s26.3-18.9,29.2-24.6s-14.1-32.3-19.9-36.1c-5.9-3.8-13.5-5.1-19.1-4.5s-10.7,2-10.7,2L149.9,61.5L149.9,61.5z"/>
		<path class="st3" d="M146.6,58.5c0,0-4.5,5.5-1.9,14.6c2.6,9.2,9.1,14.2,9.1,14.2s12.5,18,17.8,20.8c5.3,2.8,14.6,2.9,33.4-4.8
			c18.9-7.7,26.3-18.9,29.2-24.6s-14.1-32.3-19.9-36.1c-5.9-3.8-13.5-5.1-19.1-4.5c-5.5,0.6-10.7,2-10.7,2L146.6,58.5L146.6,58.5z"
			/>
		<circle class="st0" cx="164.5" cy="40.4" r="28.5"/>
		<circle class="st5" cx="160.4" cy="33" r="32.2"/>
		<g>
			<path class="st6" d="M182.5,37.5c0.3-0.7,0.8-1.9,0.6-3.4c-0.2-2.4-2.9-6.9-4-8.1s-2.9,0.2-2.9,0.2l-2-3.6
				c-4.8-8.7-15.8-11.8-24.4-7s-11.8,15.7-7,24.4l4.1,7.4l-2.3-3.8c0,0-2.1,0.7-1.7,2.3s2.8,6.2,4.7,7.7c1.4,1,2.8,1.2,3.5,1.3
				l5.5,9.8c2.4,0.3,4.8,0.3,7.2,0c10.8-1.2,19.8-7.6,24.7-16.5L182.5,37.5L182.5,37.5z"/>
			<path class="st3" d="M174,28.6c-3.6-6.5-11.9-8.9-18.4-5.3l-2.4,1.4c-6.5,3.6-8.9,11.9-5.3,18.4l12.3,22.1c1.2,0,2.5-0.1,3.7-0.2
				c9.6-1,17.8-6.2,22.9-13.6L174,28.6L174,28.6z"/>
			<path class="st7" d="M158.9,41.9c0.5,0.8,0.4,1.7-0.1,2s-1.3-0.2-1.7-1s-0.4-1.7,0.1-2S158.5,41.1,158.9,41.9z"/>
			<path class="st7" d="M169.1,36.3c0.5,0.8,0.4,1.7-0.1,2s-1.3-0.2-1.7-1s-0.4-1.7,0.1-2C167.9,35,168.7,35.4,169.1,36.3z"/>
			<polyline class="st4" points="164.1,37.6 169.3,44.1 164.6,46.3 			"/>
			<path class="st7" d="M171.9,49.5c0.5,0.8,0.2,1.9-0.7,2.3s-1.9,0.2-2.3-0.7s-0.2-1.9,0.7-2.3S171.4,48.6,171.9,49.5z"/>
			<path class="st4" d="M151.9,40.8c0,0,0.8-3.2,5-3.4"/>
			<path class="st4" d="M163.4,33.4c0,0,1.1-3.4,5.6-2.4"/>
			<path class="st4" d="M166.4,60.2c0,0,3.6,1,6,0.5c2.5-0.5,4.5-1.8,5.4-3s2.2-5.1,2.2-5.1"/>
		</g>
		<path class="st3" d="M136.7,51.6c-1.9-17.7,10.8-33.5,28.5-35.5c10.2-1.1,19.8,2.7,26.5,9.5C188,10,173.2-0.8,156.9,1
			c-17.7,1.9-30.4,17.8-28.5,35.5c0.8,7.5,4.1,14,9,19C137.1,54.2,136.9,52.9,136.7,51.6L136.7,51.6z"/>
		<g>
			
				<ellipse transform="matrix(0.9942 -0.108 0.108 0.9942 -4.6262 23.1815)" class="st0" cx="211.7" cy="54.3" rx="14.5" ry="16.4"/>
			<path class="st3" d="M245,41.3c0,0-7.8-2.1-20.4-2.4c-12.6-0.3-20.1,0.9-22.5,7.2s-1.9,16.5,5.9,19.8c4.4,1.9,10.7,0.8,15.4-0.3
				c4.6-1.1,16-5.8,19.6-11.5C246.6,48.4,246.7,43.9,245,41.3z"/>
			<path class="st0" d="M258.3,51c0,0-4.2-7.5-12-9.6s-14.9,3-18.2,8s-1.8,6.6-1.8,6.6s11.4-5.7,17.3-6.8S258.3,51,258.3,51
				L258.3,51z"/>
			<path class="st3" d="M226,61c0,0-1.8-5.3,5.5-12.1c7.4-6.8,21-4.4,25.4,0.2s3.9,12.6,0.4,16.5s-7,5.1-7,5.1S243.5,59,226,61z"/>
			<path class="st3" d="M219.9,71.4c0,0,2.8-7.4,6.2-10.3c3.3-2.9,13.3-4.1,20.7-1.6c7.4,2.6,6.1,11.1,4.7,13.8s-5.6,4.8-5.6,4.8
				L219.9,71.4L219.9,71.4z"/>
			<g>
				<path class="st3" d="M220.7,70.2c0,0-1.5,0.3-3,1.9s-2,2.3-5,4.1s-6.2,1.8-5.1,5c1.2,3.2,5.6,2.8,7.8,2.2s3.1-1.3,4.8-2.6
					c1.7-1.3,2.9-10.3,3-10.7C223.3,69.6,220.7,70.2,220.7,70.2L220.7,70.2z"/>
				<path class="st3" d="M228.7,67.2c0,0-4.5-1.1-6.6,0.7s-2,8.6-1.8,12.8c0.2,4.2,1.7,7.5,3.3,8.1c1.6,0.5,3.2,0.2,3.9-0.4
					s0-6.7,0.4-11.7S228.7,67.2,228.7,67.2z"/>
				<path class="st3" d="M228.7,67.2c0,0-2,4.8-2.6,9.8s2.1,11.7,3.1,12.3c1,0.6,4,0.4,4.6-1.1s0.2-6.5,0.3-9.4s1.5-9.3,1.3-11.2
					C235.2,65.7,230.8,65.4,228.7,67.2L228.7,67.2z"/>
				<path class="st3" d="M235.4,67.6c0,0,2.7-1.3,4.6-0.2c1.9,1.1,2.4,3.9,2.1,5.4c-0.3,1.4-1.2,9.9-1.8,12s-2.2,3-3.5,2.9
					s-2.1-1.7-2.3-3.5s-0.4-5.3-0.4-5.3L235.4,67.6z"/>
				<path class="st3" d="M242.1,70.1c0,0,3.6,0.9,4.7,1.6c1.1,0.7,1.5,3.1,0.7,6.7c-0.7,3.6-1.8,5.7-3.4,5.8s-3-1.9-3-3.2
					C241.1,79.7,242.4,73,242.1,70.1L242.1,70.1z"/>
			</g>
		</g>
		<path class="st0" d="M194.7,72.8c2.2,3.6,1.5,8.2-1.8,10.2c-3.2,2-7.7,0.7-9.9-3c-2.2-3.6-1.5-8.2,1.8-10.2S192.4,69.2,194.7,72.8
			z"/>
		<path class="st7" d="M176.9,85c1.6,2.6,1,5.8-1.2,7.2s-5.4,0.5-7-2.1s-1-5.8,1.2-7.2S175.4,82.5,176.9,85z"/>
		<path class="st5" d="M191.5,91.1c1.6,2.6,1,5.8-1.2,7.2s-5.4,0.5-7-2.1s-1-5.8,1.2-7.2S189.9,88.6,191.5,91.1z"/>
	</g>
</g>
</svg>
